<svg width="44px" height="44px" viewBox="2 2 44 44" version="1.1" xmlns="http://www.w3.org/2000/svg" xmlns:xlink="http://www.w3.org/1999/xlink">
    <!-- Generator: Sketch 3.7 (28169) - http://www.bohemiancoding.com/sketch -->
    <desc>Created with Sketch.</desc>
    <defs></defs>
    <g id="fb-circle" stroke="none" stroke-width="1" fill-rule="evenodd" transform="translate(2.000000, 2.000000)">
        <circle id="Oval" cx="21.56" cy="21.56" r="21.54"></circle>
        <path d="M27.4,8.13 L27.4,8.38 L27.4,12.45 C27.4176481,12.5167967 27.3976466,12.5879088 27.3477654,12.6357117 C27.2978841,12.6835146 27.2259856,12.7004733 27.16,12.68 L24.95,12.68 C24.6979376,12.6891601 24.4470733,12.7192638 24.2,12.77 C23.7189075,12.8579673 23.3720237,13.2809963 23.38,13.77 L23.38,16.64 C23.38,16.81 23.49,16.78 23.59,16.78 L27.47,16.78 L26.99,21.33 L23.32,21.33 L23.32,21.61 L23.32,34.3 L23.32,34.53 L18.38,34.53 L18.38,34.3 L18.38,21.64 L18.38,21.32 L15.09,21.32 L15.09,21.09 L15.09,17 C15.0723519,16.9332033 15.0923534,16.8620912 15.1422346,16.8142883 C15.1921159,16.7664854 15.2640144,16.7495267 15.33,16.77 L18.16,16.77 C18.36,16.77 18.4,16.71 18.4,16.52 L18.4,12.85 C18.4176084,11.9605127 18.6328026,11.0860728 19.03,10.29 C19.451405,9.43384924 20.2076848,8.78974494 21.12,8.51 C21.64,8.35 22.19,8.27 22.72,8.16 L23,8.13 L27.4,8.13 L27.4,8.13 Z" id="Shape" fill="#FFFFFF"></path>
    </g>
</svg>