<svg width="44px" height="44px" viewBox="1 1 44 44" version="1.1" xmlns="http://www.w3.org/2000/svg" xmlns:xlink="http://www.w3.org/1999/xlink">
    <!-- Generator: Sketch 3.7 (28169) - http://www.bohemiancoding.com/sketch -->
    <desc>Created with Sketch.</desc>
    <defs></defs>
    <g id="youtube-circle" stroke="none" stroke-width="1" fill-rule="evenodd" transform="translate(1.000000, 1.000000)">
        <circle id="Oval" cx="22.25" cy="22.25" r="21.54"></circle>
        <path d="M22.23,35.23 L14.76,35.23 C14.3710881,35.2072217 13.9873208,35.129795 13.62,35 C13.3464026,34.9065428 13.0872243,34.7752707 12.85,34.61 C12.8201118,34.6136622 12.7898882,34.6136622 12.76,34.61 C12.58,34.37 12.3,34.25 12.12,34 C11.9239743,33.7417353 11.7500273,33.4674344 11.6,33.18 C11.4300526,32.8059483 11.318747,32.4079467 11.27,32 C11.2206739,31.6321947 11.2039422,31.2607505 11.22,30.89 L11.22,24.38 C11.2249598,23.7629798 11.3866911,23.1573475 11.69,22.62 C11.9917994,22.0817402 12.4167153,21.6225569 12.93,21.28 C13.3431313,21.0237341 13.7959605,20.8378714 14.27,20.73 C14.5286255,20.6684476 14.7942852,20.6415454 15.06,20.65 L29.43,20.65 C29.62,20.65 29.79,20.74 29.97,20.72 C30.1629376,20.7268681 30.3543324,20.7570883 30.54,20.81 C30.7006461,20.8539336 30.8551757,20.917761 31,21 C31.1644456,21.0632177 31.3247608,21.1366955 31.48,21.22 C31.6254537,21.3066677 31.759781,21.4107714 31.88,21.53 C32.0413129,21.6680905 32.1948799,21.8149807 32.34,21.97 C32.51,22.17 32.65,22.39 32.8,22.61 C32.9354876,22.8478475 33.0364969,23.1037376 33.1,23.37 C33.1882696,23.6483261 33.2354336,23.9380478 33.24,24.23 L33.24,31.74 C33.2272223,32.3776812 33.0253554,32.9972037 32.66,33.52 C32.5111353,33.7493519 32.3403324,33.9636928 32.15,34.16 C31.7268325,34.5599484 31.2266777,34.8695681 30.68,35.07 C30.565328,35.0521589 30.4485604,35.0849998 30.36,35.16 C30.1346567,35.1947695 29.9077008,35.2181326 29.68,35.23 L22.23,35.23 L22.23,35.23 Z M22.82,32.37 L24,32.37 L24,31.88 C24.1094169,31.9882535 24.2097544,32.1053139 24.3,32.23 C24.4059857,32.3288836 24.5196785,32.419169 24.64,32.5 C24.80098,32.5557894 24.9696702,32.5861536 25.14,32.59 C25.4703039,32.5553451 25.7729008,32.3896373 25.98,32.13 C26.0711302,32.0199181 26.1422108,31.8946809 26.19,31.76 C26.19,31.62 26.29,31.49 26.33,31.36 C26.3756037,31.1596015 26.4023867,30.9553809 26.41,30.75 C26.41,30.53 26.47,30.32 26.48,30.1 L26.48,28.64 C26.4923015,28.1625254 26.4722557,27.6847659 26.42,27.21 C26.3844111,26.8972074 26.3309908,26.586702 26.26,26.28 C26.19831,26.0088431 26.0634148,25.7598059 25.87,25.56 C25.7377694,25.4525385 25.5973417,25.3555765 25.45,25.27 C25.1872992,25.2490825 24.9229853,25.2761916 24.67,25.35 C24.4347585,25.4955241 24.233547,25.6899149 24.08,25.92 L24.08,24.51 L24.08,23.15 L22.82,23.15 L22.82,32.37 L22.82,32.37 Z M30.93,29.11 L30.93,28.86 L30.93,28.11 C30.9573155,27.8774661 30.9573155,27.6425339 30.93,27.41 C30.87,27.18 30.93,26.94 30.84,26.7 C30.7648246,26.4123622 30.6504178,26.1364398 30.5,25.88 C30.2835206,25.5283245 29.9117568,25.3015486 29.5,25.27 C29.1995071,25.2303927 28.8942565,25.247351 28.6,25.32 C28.1652048,25.4560253 27.8042953,25.7627984 27.6,26.17 C27.5212076,26.3152473 27.4735286,26.4753124 27.46,26.64 C27.4130315,26.8031623 27.3828745,26.9707008 27.37,27.14 C27.37,27.31 27.31,27.48 27.31,27.64 L27.31,29.03 C27.2993765,29.4839258 27.3160733,29.9380797 27.36,30.39 C27.4019489,30.7696296 27.478944,31.144562 27.59,31.51 C27.67773,31.777948 27.8326572,32.0189459 28.04,32.21 C28.2299528,32.3197656 28.427063,32.4166503 28.63,32.5 C28.7465799,32.5063651 28.8634201,32.5063651 28.98,32.5 C29.085558,32.5407996 29.1969686,32.5644321 29.31,32.57 L29.7,32.49 C30.2099036,32.4038233 30.6298133,32.0416994 30.79,31.55 C30.8930444,31.3103633 30.940891,31.0506248 30.93,30.79 C30.9205549,30.7573357 30.9205549,30.7226643 30.93,30.69 C30.9874319,30.463126 30.9839824,30.2251144 30.92,30 L29.72,30 L29.72,30.36 C29.7097167,30.4821731 29.6862468,30.6028753 29.65,30.72 C29.609873,31.0303346 29.383637,31.284354 29.08,31.36 C28.9545887,31.2903854 28.8400415,31.2027905 28.74,31.1 C28.5958318,30.8870427 28.5159884,30.6370981 28.51,30.38 L28.51,29.24 C28.522401,29.1731584 28.5460713,29.1089104 28.58,29.05 L30.92,29.05 L30.93,29.11 Z M20.47,25.52 L20.47,30.39 C20.4683741,30.5819413 20.4203415,30.7706408 20.33,30.94 C20.2872933,31.0151064 20.2251064,31.0772933 20.15,31.12 C20.013553,31.1746515 19.8667359,31.198552 19.72,31.19 C19.5063066,30.9921697 19.3894638,30.7110166 19.4,30.42 L19.4,27.75 L19.4,25.53 L19.3,25.41 L18.3,25.41 L18.2,25.51 L18.2,25.86 L18.2,28.78 C18.1587126,29.7473473 18.1854451,30.7164001 18.28,31.68 C18.3934302,32.0475642 18.6541082,32.3516885 19,32.52 C19.1233213,32.4788295 19.2566787,32.4788295 19.38,32.52 L19.81,32.45 C20.0701441,32.3013729 20.2872299,32.0877329 20.44,31.83 L20.55,32 L20.55,32.37 L21.66,32.37 L21.75,32.28 L21.75,25.51 L21.66,25.42 L20.57,25.42 L20.47,25.52 Z M16.71,32.38 L16.71,24.72 L16.81,24.62 L18.18,24.62 L18.18,23.15 L13.85,23.15 L13.85,24.63 L15.23,24.63 L15.34,24.74 L15.34,31.95 C15.3334586,32.0432187 15.3334586,32.1367813 15.34,32.23 C15.3575296,32.2843616 15.384621,32.3351581 15.42,32.38 L16.7,32.38 L16.71,32.38 Z" id="Shape" fill="#FFFFFF"></path>
        <path d="M20.88,7.91 C20.8942973,8.15188855 20.8350313,8.3924388 20.71,8.6 C20.56,8.95 20.46,9.33 20.32,9.68 C20.12,10.21 19.98,10.77 19.75,11.3 C19.6086637,11.6457241 19.4884426,11.9997083 19.39,12.36 C19.26,12.83 19.07,13.27 18.92,13.73 C18.8035775,14.050674 18.7427046,14.3888568 18.74,14.73 L18.74,18.5 L18.74,18.86 L17.19,18.86 L17.19,18.56 L17.19,14.68 C17.1818733,14.3612362 17.1175535,14.0464078 17,13.75 C16.77,13.09 16.55,12.42 16.3,11.75 C16.05,11.08 15.93,10.61 15.69,10.05 C15.45,9.49 15.4,9.18 15.25,8.74 L15,8 L15.1,7.92 L16.69,7.92 C16.7774914,8.0845887 16.8446507,8.25920278 16.89,8.44 C16.9495484,8.71129345 17.0263716,8.97850455 17.12,9.24 C17.24,9.72 17.42,10.18 17.55,10.66 C17.61,10.9 17.7,11.14 17.78,11.38 C17.86,11.62 17.86,11.68 17.91,11.83 C17.9319155,11.8905908 17.9622098,11.9478134 18,12 C18.21,11.47 18.3,10.91 18.53,10.4 C18.5749641,10.115511 18.6521262,9.83705621 18.76,9.57 C18.83,9.27 19,9 19,8.73 C19.0705129,8.517193 19.1272963,8.30008017 19.17,8.08 L19.34,7.91 L20.86,7.91 L20.88,7.91 Z" id="Shape" fill="#FFFFFF"></path>
        <path d="M24.52,14.8 L24.52,15.37 C24.5214388,15.8578003 24.4947277,16.3452773 24.44,16.83 C24.44,16.96 24.38,17.09 24.37,17.23 C24.3427503,17.3603457 24.3025508,17.4876441 24.25,17.61 C24.2275666,17.7403604 24.1906722,17.867814 24.14,17.99 C23.9029804,18.4599386 23.4950734,18.82133 23,19 C22.7404096,19.0548156 22.4751844,19.0783165 22.21,19.07 C21.8370999,19.0966048 21.4663873,18.9942175 21.16,18.78 C20.8344784,18.5685091 20.5828432,18.260955 20.44,17.9 C20.31,17.57 20.28,17.21 20.16,16.9 L20.16,16.58 C20.1399742,16.4877409 20.1399742,16.3922591 20.16,16.3 C20.1776674,16.2209754 20.1776674,16.1390246 20.16,16.06 C20.1758901,15.9539251 20.1758901,15.8460749 20.16,15.74 L20.16,13.74 C20.16,13.46 20.24,13.19 20.24,12.9 C20.2215548,12.597115 20.2519429,12.2932347 20.33,12 C20.3743585,11.7968839 20.4484927,11.601439 20.55,11.42 C20.7008539,11.1986025 20.8789137,10.9970255 21.08,10.82 C21.2637297,10.6782539 21.4748323,10.5761075 21.7,10.52 C22.0512224,10.4425634 22.4130868,10.4256538 22.77,10.47 C23.04606,10.5004725 23.3069724,10.6117952 23.52,10.79 C23.9341884,11.1141859 24.2123641,11.5813783 24.3,12.1 C24.37,12.43 24.42,12.77 24.46,13.1 C24.5,13.43 24.46,13.65 24.51,13.93 C24.56,14.21 24.52,14.51 24.52,14.8 L24.52,14.8 Z M22.75,17.45 C22.9467822,17.1004148 23.0338874,16.6997308 23,16.3 L23,13 C23.0151251,12.6208939 22.8612871,12.254613 22.58,12 C22.2987129,11.745387 22.58,12 22.58,12 L22.31,11.91 L22.06,12 L21.76,12.29 L21.76,12.47 C21.6960966,12.650733 21.6557641,12.8389515 21.64,13.03 L21.64,16.58 C21.6313782,16.6664522 21.6313782,16.7535478 21.64,16.84 C21.6798398,17.063177 21.7612518,17.2768833 21.88,17.47 C21.9945353,17.5894385 22.1539649,17.6552868 22.3194019,17.6514836 C22.4848389,17.6476805 22.6410743,17.5745755 22.75,17.45 L22.75,17.45 Z" id="Shape" fill="#FFFFFF"></path>
        <path d="M29.5,10.7 L29.5,18.86 L28.09,18.86 L28.09,18.13 C27.94,18.36 27.82,18.55 27.69,18.72 C27.5170419,18.8623835 27.3252252,18.9801657 27.12,19.07 L26.33,19.07 C26.1905828,18.9856743 26.0569522,18.8921329 25.93,18.79 C25.570832,18.4675068 25.3730732,18.0024075 25.39,17.52 L25.39,10.98 L25.39,10.7 L26.72,10.7 L26.81,10.8 L26.81,14.26 L26.81,16.68 C26.8228214,16.8370843 26.8564488,16.99177 26.91,17.14 C26.9356851,17.2901674 27.0507893,17.4092406 27.2,17.44 L27.63,17.44 L27.92,17.14 C27.9915077,16.9139981 28.0186723,16.6763081 28,16.44 C28.0791112,15.5523111 28.0991554,14.6603466 28.06,13.77 L28.06,11.07 L28.06,10.7 L29.5,10.7 L29.5,10.7 Z" id="Shape" fill="#FFFFFF"></path>
        <path d="M24.33,26.71 C24.5098325,26.5829803 24.7501675,26.5829803 24.93,26.71 C24.93,26.8 25.03,26.89 25.06,26.98 C25.1144651,27.0895663 25.1483598,27.208198 25.16,27.33 C25.16,27.99 25.27,28.63 25.25,29.33 C25.25,29.55 25.16,29.76 25.17,29.98 C25.1936123,30.19268 25.1936123,30.40732 25.17,30.62 C25.1484064,30.8908333 25.000102,31.1355354 24.77,31.28 C24.608246,31.3034147 24.4436628,31.2640578 24.31,31.17 C24.1087336,30.8771466 24.0134801,30.5243558 24.04,30.17 C24.04,29.9 23.94,29.65 23.97,29.38 C23.9890499,29.1203489 23.9890499,28.8596511 23.97,28.6 C23.9647158,28.399528 23.9747449,28.1989451 24,28 C23.9805171,27.8138417 23.9805171,27.6261583 24,27.44 C24.0247804,27.2190534 24.1075827,27.0085977 24.24,26.83 C24.2783196,26.7969742 24.3090247,26.7560341 24.33,26.71 L24.33,26.71 Z" id="Shape" fill="#FFFFFF"></path>
        <path d="M29.73,27.92 L29.6,28 C29.2318613,28.0190717 28.8627516,27.9955829 28.5,27.93 L28.5,27.23 C28.4799005,26.8938747 28.6833738,26.5845952 29,26.47 L29.28,26.47 C29.4788008,26.530578 29.6160356,26.7122123 29.62,26.92 C29.7,27.29 29.71,27.61 29.73,27.92 L29.73,27.92 Z" id="Shape" fill="#FFFFFF"></path>
    </g>
</svg>